<?xml version="1.0" encoding="UTF-8"?>
<svg width="150px" height="67px" viewBox="0 0 150 67" version="1.1" xmlns="http://www.w3.org/2000/svg" xmlns:xlink="http://www.w3.org/1999/xlink">
    <!-- Generator: Sketch 57.1 (83088) - https://sketch.com -->
    <title>FH_logo-full_EPS_CYMK(2945) Copy</title>
    <desc>Created with Sketch.</desc>
    <defs>
        <rect id="path-1" x="0" y="0.000391304348" width="167" height="80.8696957"></rect>
        <rect id="path-3" x="0" y="0.000391304348" width="167" height="80.8696957"></rect>
        <rect id="path-5" x="0" y="0.000391304348" width="167" height="80.8696957"></rect>
        <rect id="path-7" x="0" y="0.000391304348" width="167" height="80.8696957"></rect>
        <rect id="path-9" x="0" y="0.000391304348" width="167" height="80.8696957"></rect>
        <rect id="path-11" x="0" y="0.000391304348" width="167" height="80.8696957"></rect>
        <rect id="path-13" x="0" y="0.000391304348" width="167" height="80.8696957"></rect>
        <rect id="path-15" x="0" y="0.000391304348" width="167" height="80.8696957"></rect>
        <rect id="path-17" x="0" y="0.000391304348" width="167" height="80.8696957"></rect>
        <rect id="path-19" x="0" y="0.000391304348" width="167" height="80.8696957"></rect>
        <rect id="path-21" x="0" y="0.000391304348" width="167" height="80.8696957"></rect>
        <rect id="path-23" x="0" y="0.000391304348" width="167" height="80.8696957"></rect>
        <rect id="path-25" x="0" y="0.000391304348" width="167" height="80.8696957"></rect>
        <rect id="path-27" x="0" y="0.000391304348" width="167" height="80.8696957"></rect>
    </defs>
    <g id="Symbols" stroke="none" stroke-width="1" fill="none" fill-rule="evenodd">
        <g id="Desktop-Nav" transform="translate(-185.000000, -15.000000)">
            <g id="FH_logo-full_EPS_CYMK(2945)-Copy">
                <g transform="translate(175.000000, 10.000000)">
                    <rect id="Rectangle" fill="#385E8A" fill-rule="nonzero" x="11" y="41" width="17" height="2"></rect>
                    <g id="Group">
                        <g id="Clipped">
                            <mask id="mask-2" fill="white">
                                <use xlink:href="#path-1"></use>
                            </mask>
                            <g id="SVGID_1_"></g>
                            <path d="M14.2194674,44.6364783 L17.2332349,71.1387391 C17.2332349,71.1387391 19.2601488,72.6757826 21.4377512,71.1387391 L24.0340186,44.6302174 L14.2194674,44.6364783 Z" id="Path" fill="#385E8A" fill-rule="nonzero" mask="url(#mask-2)"></path>
                        </g>
                        <g id="Clipped">
                            <mask id="mask-4" fill="white">
                                <use xlink:href="#path-3"></use>
                            </mask>
                            <g id="SVGID_1_"></g>
                            <path d="M26.9037,14.7263478 C26.6318395,17.3152174 25.9506349,20.2738696 23.2242628,21.5068696 C20.9084,22.4925652 17.999493,23.3847391 16.0918093,24.8638696 C13.9266349,26.6493913 12.7020977,29.075087 12.4348977,31.5673043 C11.9622488,28.5499565 12.561507,24.8431304 17.9439558,21.0376957 C20.0419419,19.5546522 21.6863093,18.9082174 23.3586395,16.9622609 C26.2205535,13.6338261 26.6201884,8.568 24.576186,5.11630435 C24.576186,7.95169565 24.3031605,11.2801304 21.3053163,13.0057826 C18.4437907,14.6081739 15.4455581,15.4713913 13.4019442,17.937 C10.5858581,21.2943913 9.0319814,26.613 12.3894581,33.0026087 C12.4558698,34.6003043 12.9102651,36.1811739 13.7802186,37.5941739 L13.7802186,40.3939565 L24.4736558,40.3939565 L24.4736558,36.8655652 L14.2462651,36.8655652 C14.0850907,36.8655652 13.9856674,35.6388261 13.9829488,35.4948261 C13.9744047,35.0096087 14.0544093,34.5267391 14.191893,34.0622609 C15.0684488,31.0965652 17.3901372,29.2296522 19.9805791,27.8272174 C22.1597349,26.6474348 24.5998767,25.6273043 26.1541419,23.5964348 C26.7770907,22.782913 27.2112907,21.8426087 27.4598488,20.8475217 C28.4012628,17.0722174 26.9037,14.7263478 26.9037,14.7263478" id="Path" fill="#385E8A" fill-rule="nonzero" mask="url(#mask-4)"></path>
                        </g>
                        <g id="Clipped">
                            <mask id="mask-6" fill="white">
                                <use xlink:href="#path-5"></use>
                            </mask>
                            <g id="SVGID_1_"></g>
                            <polygon id="Path" fill="#385E8A" fill-rule="nonzero" mask="url(#mask-6)" points="36.3718233 18.5083043 50.7311047 18.5083043 50.7311047 22.1752174 40.5406093 22.1752174 40.5406093 28.8422609 49.5395791 28.8422609 49.5395791 32.3092174 40.5406093 32.3092174 40.5406093 42.5097391 36.3718233 42.5097391"></polygon>
                        </g>
                        <g id="Clipped">
                            <mask id="mask-8" fill="white">
                                <use xlink:href="#path-7"></use>
                            </mask>
                            <g id="SVGID_1_"></g>
                            <path d="M62.7737465,28.9087826 C62.5092651,28.8755217 62.0789488,28.8422609 61.7150442,28.8422609 C59.3331581,28.8422609 57.5462581,30.4423043 56.8514605,31.1756087 L56.8514605,42.5097391 L52.749086,42.5097391 L52.749086,25.5087391 L56.8514605,25.5087391 L56.8514605,28.1422174 C57.8111279,26.5421739 59.4982163,25.1088261 61.7480558,25.1088261 C62.1119605,25.1088261 62.5092651,25.142087 62.7737465,25.2086087 L62.7737465,28.9087826 Z" id="Path" fill="#385E8A" fill-rule="nonzero" mask="url(#mask-8)"></path>
                        </g>
                        <g id="Clipped">
                            <mask id="mask-10" fill="white">
                                <use xlink:href="#path-9"></use>
                            </mask>
                            <g id="SVGID_1_"></g>
                            <path d="M67.7697651,35.1755217 C68.0346349,38.5426957 69.7881349,39.8093478 72.3688674,39.8093478 C74.0229442,39.8093478 75.6440093,39.276 77.4639209,38.376 L78.3241651,41.3428696 C76.5376535,42.3097826 74.0889674,42.9096522 71.8391279,42.9096522 C66.810486,42.9096522 63.5679674,39.9760435 63.5679674,34.2426522 C63.5679674,28.2756522 67.1079791,25.1088261 71.7070814,25.1088261 C75.9749023,25.1088261 78.787493,27.8088261 78.787493,33.375913 C78.787493,33.9757826 78.754093,34.5756522 78.6880698,35.1755217 L67.7697651,35.1755217 Z M67.7037419,32.5091739 L74.9496,32.5091739 C74.9162,29.4421304 73.5600047,28.1089565 71.5746465,28.1089565 C69.4902535,28.1089565 67.9686116,29.6088261 67.7037419,32.5091739 L67.7037419,32.5091739 Z" id="Shape" fill="#385E8A" fill-rule="nonzero" mask="url(#mask-10)"></path>
                        </g>
                        <g id="Clipped">
                            <mask id="mask-12" fill="white">
                                <use xlink:href="#path-11"></use>
                            </mask>
                            <g id="SVGID_1_"></g>
                            <path d="M84.9078488,35.1755217 C85.1727186,38.5426957 86.9262186,39.8093478 89.5069512,39.8093478 C91.1614163,39.8093478 92.7824814,39.276 94.6020047,38.376 L95.4622488,41.3428696 C93.6757372,42.3097826 91.2274395,42.9096522 88.9776,42.9096522 C83.9489581,42.9096522 80.7064395,39.9760435 80.7064395,34.2426522 C80.7064395,28.2756522 84.2464512,25.1088261 88.8455535,25.1088261 C93.1133744,25.1088261 95.9259651,27.8088261 95.9259651,33.375913 C95.9259651,33.9757826 95.8925651,34.5756522 95.8265419,35.1755217 L84.9078488,35.1755217 Z M84.8418256,32.5091739 L92.0876837,32.5091739 C92.0542837,29.4421304 90.6980884,28.1089565 88.7127302,28.1089565 C86.6283372,28.1089565 85.1066953,29.6088261 84.8418256,32.5091739 L84.8418256,32.5091739 Z" id="Shape" fill="#385E8A" fill-rule="nonzero" mask="url(#mask-12)"></path>
                        </g>
                        <g id="Clipped">
                            <mask id="mask-14" fill="white">
                                <use xlink:href="#path-13"></use>
                            </mask>
                            <g id="SVGID_1_"></g>
                            <path d="M109.820753,42.5101304 C109.655307,42.2428696 109.48986,41.7764348 109.390826,40.2761739 C107.935207,41.9763913 106.24773,42.9100435 104.196349,42.9100435 C100.424479,42.9100435 97.8445233,39.843 97.8445233,34.3091739 C97.8445233,28.3421739 100.822172,25.1092174 104.593653,25.1092174 C106.4792,25.1092174 108.00123,25.9090435 109.358202,27.5094783 L109.358202,18.5083043 L113.460577,18.5083043 L113.460577,38.6428696 C113.460577,41.3096087 113.626023,42.1763478 113.79147,42.5097391 L109.820753,42.5097391 L109.820753,42.5101304 Z M109.357814,37.6426957 L109.357814,30.4755652 C108.199688,29.2421739 106.97554,28.641913 105.685367,28.641913 C103.46854,28.641913 101.946509,30.3421304 101.946509,34.1424783 C101.946509,37.9428261 103.46854,39.6093913 105.552933,39.6093913 C106.876116,39.6093913 108.100653,38.943 109.357814,37.6426957 L109.357814,37.6426957 Z" id="Shape" fill="#385E8A" fill-rule="nonzero" mask="url(#mask-14)"></path>
                        </g>
                        <g id="Clipped">
                            <mask id="mask-16" fill="white">
                                <use xlink:href="#path-15"></use>
                            </mask>
                            <g id="SVGID_1_"></g>
                            <path d="M124.080223,42.9096522 C119.812402,42.9096522 116.205979,40.1427391 116.205979,34.0759565 C116.205979,27.9422609 119.878426,25.1088261 124.212658,25.1088261 C128.480479,25.1088261 132.086902,27.8753478 132.086902,33.9425217 C132.086902,40.0762174 128.414456,42.9096522 124.080223,42.9096522 M124.146247,39.8758696 C126.263651,39.8758696 127.984528,38.2425652 127.984528,34.0759565 C127.984528,29.9085652 126.263651,28.2752609 124.146247,28.2752609 C122.028842,28.2752609 120.308353,29.9085652 120.308353,34.0759565 C120.308353,38.2425652 122.028842,39.8758696 124.146247,39.8758696" id="Shape" fill="#385E8A" fill-rule="nonzero" mask="url(#mask-16)"></path>
                        </g>
                        <g id="Clipped">
                            <mask id="mask-18" fill="white">
                                <use xlink:href="#path-17"></use>
                            </mask>
                            <g id="SVGID_1_"></g>
                            <path d="M134.833081,25.5083478 L138.935456,25.5083478 L138.935456,27.7751739 C140.29204,26.3754783 142.277009,25.1088261 144.791719,25.1088261 C146.545219,25.1088261 148.298719,25.7419565 148.927105,27.8088261 C150.349712,26.4087391 152.401093,25.1088261 155.081249,25.1088261 C157.62897,25.1088261 159.448493,26.3085652 159.448493,29.8420435 L159.448493,42.5093478 L155.34573,42.5093478 L155.34573,31.0425652 C155.34573,29.2425652 154.584909,28.7092174 153.36076,28.7092174 C151.772707,28.7092174 150.383112,29.5759565 149.192363,30.675913 L149.192363,42.5097391 L145.089988,42.5097391 L145.089988,31.0425652 C145.089988,29.2425652 144.295767,28.7092174 143.105019,28.7092174 C141.549977,28.7092174 140.12737,29.5759565 138.936233,30.7424348 L138.936233,42.5097391 L134.833858,42.5097391 L134.833858,25.5083478 L134.833081,25.5083478 Z" id="Path" fill="#385E8A" fill-rule="nonzero" mask="url(#mask-18)"></path>
                        </g>
                        <g id="Clipped">
                            <mask id="mask-20" fill="white">
                                <use xlink:href="#path-19"></use>
                            </mask>
                            <g id="SVGID_1_"></g>
                            <polygon id="Path" fill="#385E8A" fill-rule="nonzero" mask="url(#mask-20)" points="36.3718233 47.1686087 40.5406093 47.1686087 40.5406093 57.0024783 50.2343767 57.0024783 50.2343767 47.1686087 54.4031628 47.1686087 54.4031628 71.1700435 50.2343767 71.1700435 50.2343767 60.6361304 40.5406093 60.6361304 40.5406093 71.1700435 36.3718233 71.1700435"></polygon>
                        </g>
                        <g id="Clipped">
                            <mask id="mask-22" fill="white">
                                <use xlink:href="#path-21"></use>
                            </mask>
                            <g id="SVGID_1_"></g>
                            <path d="M65.2224326,71.5699565 C60.9542233,71.5699565 57.3478,68.8030435 57.3478,62.7362609 C57.3478,56.6025652 61.0202465,53.7691304 65.3544791,53.7691304 C69.6226884,53.7691304 73.2287233,56.5356522 73.2287233,62.6028261 C73.2287233,68.7365217 69.5562767,71.5699565 65.2224326,71.5699565 M65.2884558,68.5361739 C67.4058605,68.5361739 69.1263488,66.9028696 69.1263488,62.7362609 C69.1263488,58.5692609 67.4058605,56.9359565 65.2884558,56.9359565 C63.1710512,56.9359565 61.4505628,58.5692609 61.4505628,62.7362609 C61.4509512,66.9032609 63.1710512,68.5361739 65.2884558,68.5361739" id="Shape" fill="#385E8A" fill-rule="nonzero" mask="url(#mask-22)"></path>
                        </g>
                        <g id="Clipped">
                            <mask id="mask-24" fill="white">
                                <use xlink:href="#path-23"></use>
                            </mask>
                            <g id="SVGID_1_"></g>
                            <path d="M90.3671953,71.1700435 L86.2648209,71.1700435 L86.2648209,68.9032174 C84.7097791,70.4367391 82.6583977,71.5695652 80.1770884,71.5695652 C77.5963558,71.5695652 75.6774093,70.3698261 75.6774093,66.8363478 L75.6774093,54.1686522 L79.7797837,54.1686522 L79.7797837,65.7692609 C79.7797837,67.536 80.5740047,68.1026087 81.8641767,68.1026087 C83.4856302,68.1026087 85.0072721,67.2026087 86.2648209,66.0693913 L86.2648209,54.1686522 L90.3671953,54.1686522 L90.3671953,71.1700435 L90.3671953,71.1700435 Z" id="Path" fill="#385E8A" fill-rule="nonzero" mask="url(#mask-24)"></path>
                        </g>
                        <g id="Clipped">
                            <mask id="mask-26" fill="white">
                                <use xlink:href="#path-25"></use>
                            </mask>
                            <g id="SVGID_1_"></g>
                            <path d="M104.627053,58.536 C103.336493,57.636 101.74844,56.9692174 100.292821,56.9692174 C98.7707907,56.9692174 97.9105465,57.7361739 97.9105465,58.7696087 C97.9105465,61.9696957 106.01626,59.7697826 106.01626,65.903087 C106.01626,69.4365652 103.336493,71.5699565 99.167707,71.5699565 C97.0503023,71.5699565 94.9328977,71.0033478 93.2784326,70.0696957 L94.1386767,66.8696087 C95.7267302,67.7696087 97.4472186,68.4696522 99.1346953,68.4696522 C101.020242,68.4696522 102.045544,67.602913 102.045544,66.3695217 C102.045544,62.9029565 93.9402186,65.0363478 93.9402186,59.1358696 C93.9402186,55.8356087 96.4219163,53.7691304 100.259421,53.7691304 C102.244391,53.7691304 104.030902,54.3357391 105.486909,55.2357391 L104.627053,58.536 Z" id="Path" fill="#385E8A" fill-rule="nonzero" mask="url(#mask-26)"></path>
                        </g>
                        <g id="Clipped">
                            <mask id="mask-28" fill="white">
                                <use xlink:href="#path-27"></use>
                            </mask>
                            <g id="SVGID_1_"></g>
                            <path d="M112.137393,63.8362174 C112.402263,67.203 114.155374,68.4700435 116.736107,68.4700435 C118.390572,68.4700435 120.012026,67.9366957 121.831549,67.0366957 L122.691793,70.0035652 C120.904893,70.9704783 118.456984,71.5703478 116.207144,71.5703478 C111.178114,71.5703478 107.935595,68.6367391 107.935595,62.9033478 C107.935595,56.9363478 111.475607,53.7695217 116.074709,53.7695217 C120.34253,53.7695217 123.154733,56.4695217 123.154733,62.0366087 C123.154733,62.6364783 123.121721,63.2363478 123.055309,63.8366087 L112.137393,63.8366087 L112.137393,63.8362174 Z M112.070981,61.1694783 L119.31684,61.1694783 C119.283828,58.1024348 117.927244,56.7692609 115.942274,56.7692609 C113.857881,56.7692609 112.335851,58.2691304 112.070981,61.1694783 L112.070981,61.1694783 Z" id="Shape" fill="#385E8A" fill-rule="nonzero" mask="url(#mask-28)"></path>
                        </g>
                    </g>
                </g>
            </g>
        </g>
    </g>
</svg>