<svg width="30" height="30" viewBox="0 0 24 24" fill="none" xmlns="http://www.w3.org/2000/svg">
  <path fill-rule="evenodd" clip-rule="evenodd" d="M0 12C0 5.373 5.373 0 12 0C18.627 0 24 5.373 24 12C24 18.627 18.627 24 12 24C5.373 24 0 18.627 0 12ZM22 12C22 6.48602 17.514 2.00002 12 2.00002C6.486 2.00002 2 6.48602 2 12C2 17.514 6.486 22 12 22C17.514 22 22 17.514 22 12Z" fill="#385E8A"/>
  <path d="M13.0043 11.0812L17.3856 6H16.3474L12.5431 10.4119L9.50455 6H6L10.5948 12.6716L6 18H7.0383L11.0558 13.3409L14.2646 18H17.7692L13.0043 11.0812ZM11.5822 12.7304L11.1166 12.066L7.41241 6.77981H9.00718L11.9965 11.046L12.4621 11.7103L16.3479 17.2557H14.7531L11.5822 12.7304Z" fill="#385E8A"/>
</svg>
