<?xml version="1.0" encoding="UTF-8"?>
<svg width="30px" height="30px" viewBox="0 0 30 30" version="1.1" xmlns="http://www.w3.org/2000/svg" xmlns:xlink="http://www.w3.org/1999/xlink">
    <!-- Generator: Sketch 58 (84663) - https://sketch.com -->
    <title>email</title>
    <desc>Created with Sketch.</desc>
    <g id="Landing-Page" stroke="none" stroke-width="1" fill="none" fill-rule="evenodd">
        <g id="fh_landingpage-kitchensink_d" transform="translate(-1210.000000, -557.000000)" fill="#677383" fill-rule="nonzero">
            <g id="email" transform="translate(1210.000000, 557.000000)">
                <path d="M15,2.5 C21.8925,2.5 27.5,8.1075 27.5,15 C27.5,21.8925 21.8925,27.5 15,27.5 C8.1075,27.5 2.5,21.8925 2.5,15 C2.5,8.1075 8.1075,2.5 15,2.5 Z M15,0 C6.71625,0 0,6.71625 0,15 C0,23.28375 6.71625,30 15,30 C23.28375,30 30,23.28375 30,15 C30,6.71625 23.28375,0 15,0 Z M15,15.6875 L7.51,9.975 L22.48875,9.975 L15,15.6875 Z M15,17.2975 L7.5,11.51125 L7.5,19.975 L22.5,19.975 L22.5,11.51125 L15,17.2975 L15,17.2975 Z" id="Shape"></path>
            </g>
        </g>
    </g>
</svg>